time, note, velocity
3.324285, 60, 58
3.719020, 64, 70
3.773916, 60, 0
4.114095, 62, 83
4.163927, 64, 0
4.499793, 65, 89
4.530760, 62, 0
4.903361, 64, 95
4.956646, 65, 0
5.294429, 67, 97
5.315612, 64, 0
5.678783, 65, 85
5.696790, 67, 0
6.077196, 64, 97
6.142902, 65, 0
6.485684, 62, 95
6.512713, 64, 0
6.882032, 65, 95
6.906778, 62, 0
7.257652, 64, 91
7.314519, 65, 0
7.661800, 67, 93
7.672673, 64, 0
8.063359, 65, 95
8.104636, 67, 0
8.438248, 62, 89
8.475760, 65, 0
8.816994, 64, 100
8.863633, 62, 0
9.210809, 60, 95
9.237577, 64, 0
9.600179, 62, 91
9.661684, 60, 0
9.977703, 64, 93
10.026680, 62, 0
10.343483, 65, 85
10.382707, 64, 0
10.716578, 64, 95
10.760668, 65, 0
11.111709, 67, 95
11.139558, 64, 0
11.488987, 65, 87
11.535724, 67, 0
11.859631, 62, 89
11.891637, 65, 0
12.231109, 64, 91
12.271589, 62, 0
12.599248, 60, 95
12.639611, 64, 0
13.446705, 62, 97
13.499411, 60, 0
14.270486, 64, 91
14.306552, 62, 0
14.649585, 65, 75
14.698386, 64, 0
15.041557, 67, 85
15.106497, 65, 0
15.841762, 65, 87
15.875466, 67, 0
16.228593, 64, 95
16.290669, 65, 0
16.605330, 62, 91
16.674315, 64, 0
16.999140, 64, 89
17.045378, 62, 0
17.360287, 65, 87
17.411275, 64, 0
18.231249, 64, 87
18.301390, 65, 0
19.050318, 62, 98
19.090547, 64, 0
19.889354, 64, 105
19.931708, 62, 0
20.748655, 65, 91
20.818531, 64, 0
21.118199, 67, 83
21.150634, 65, 0
21.504483, 65, 91
21.544028, 67, 0
22.317227, 64, 93
22.402199, 65, 0
22.719397, 62, 86
22.778166, 64, 0
23.110468, 60, 89
23.164252, 62, 0
23.503153, 62, 87
23.567215, 60, 0
23.881328, 64, 98
23.922307, 62, 0
25.109853, 65, 89
25.342299, 64, 0
25.497240, 67, 93
25.539133, 65, 0
26.712154, 65, 85
26.775033, 67, 0
27.109968, 64, 95
27.173064, 65, 0
27.929931, 62, 87
27.979143, 64, 0
28.807960, 65, 85
28.847935, 62, 0
29.180825, 64, 87
29.219802, 65, 0
29.577983, 62, 83
29.619986, 64, 0
29.966966, 64, 78
30.015970, 62, 0
30.385041, 60, 76
30.418873, 64, 0
30.806866, 62, 83
30.862880, 60, 0
31.186313, 60, 91
31.222928, 62, 0
31.587978, 64, 83
31.632770, 60, 0
31.952931, 60, 95
31.981920, 64, 0
32.335530, 65, 89
32.368814, 60, 0
32.713033, 60, 87
32.767819, 65, 0
33.114166, 67, 89
33.161781, 60, 0
33.476922, 60, 98
33.514760, 67, 0
33.901982, 65, 97
33.965798, 60, 0
34.275057, 60, 98
34.318711, 65, 0
34.667831, 64, 91
34.736764, 60, 0
35.041554, 60, 98
35.073911, 64, 0
35.420045, 62, 97
35.467760, 60, 0
35.830993, 65, 91
35.866830, 62, 0
36.219708, 64, 89
36.284884, 65, 0
36.633811, 67, 98
36.661819, 64, 0
37.016770, 62, 22
37.091777, 67, 0
37.426989, 65, 78
37.465686, 62, 0
37.825850, 64, 86
37.895596, 65, 0
38.214821, 62, 95
38.250667, 64, 0
38.636972, 64, 89
38.671763, 62, 0
39.026809, 60, 93
39.055604, 64, 0
39.886824, 62, 87
40.062750, 60, 0
40.308104, 64, 87
40.352588, 62, 0
40.709551, 65, 82
40.772710, 64, 0
41.551438, 64, 76
41.631453, 65, 0
41.981466, 62, 78
42.027622, 64, 0
42.385995, 67, 89
42.412498, 62, 0
43.235866, 62, 93
43.283530, 67, 0
44.095273, 65, 80
44.125296, 62, 0
44.947917, 64, 89
44.998610, 65, 0
45.813778, 62, 84
45.865372, 64, 0
46.230876, 64, 91
46.256381, 62, 0
46.634717, 65, 89
46.671454, 64, 0
47.471459, 64, 87
47.506441, 65, 0
47.868234, 65, 77
48.070134, 64, 0
48.266332, 67, 91
48.298464, 65, 0
49.045276, 65, 83
49.085237, 67, 0
49.431431, 64, 81
49.523306, 65, 0
49.825510, 62, 93
49.853254, 64, 0
50.221665, 64, 95
50.259510, 62, 0
50.607258, 60, 97
50.613285, 64, 0
50.983671, 67, 72
51.374395, 65, 69
51.396348, 67, 0
51.743091, 60, 0
51.779141, 64, 83
51.848197, 65, 0
52.174339, 62, 100
52.220021, 64, 0
52.553279, 65, 87
52.595541, 62, 0
52.950243, 64, 86
53.016252, 65, 0
53.342521, 62, 87
53.377154, 64, 0
53.734264, 60, 95
53.773175, 62, 0
54.124345, 67, 78
54.188183, 60, 0
54.498245, 65, 75
54.538091, 67, 0
54.892049, 64, 78
54.957938, 65, 0
55.271232, 62, 84
55.322073, 64, 0
55.652189, 65, 80
55.686104, 62, 0
56.056096, 64, 78
56.125921, 65, 0
56.426070, 62, 83
56.453990, 64, 0
56.840192, 60, 91
56.874143, 62, 0
57.031751, 64, 70
57.080129, 60, 0
57.232418, 62, 81
57.274132, 64, 0
57.426263, 65, 82
57.460141, 62, 0
57.610404, 64, 81
57.662096, 65, 0
57.824206, 67, 95
57.846194, 64, 0
58.016984, 65, 89
58.072102, 67, 0
58.213362, 64, 89
58.283934, 65, 0
58.416997, 62, 108
58.435217, 64, 0
58.824096, 65, 85
58.855962, 62, 0
59.212972, 64, 98
59.298022, 65, 0
59.593075, 60, 103
59.627200, 64, 0
60.040007, 62, 105
60.137883, 60, 0
60.863864, 62, 0
60.886495, 64, 87
61.273113, 65, 87
61.363211, 64, 0
61.681511, 67, 85
61.713976, 65, 0
62.543418, 65, 80
62.553959, 67, 0
62.958045, 64, 93
62.989857, 65, 0
63.380878, 62, 97
63.408826, 64, 0
64.282655, 64, 103
64.684920, 62, 0
65.095142, 60, 103
65.122806, 64, 0
65.928913, 65, 97
65.972838, 60, 0
66.771821, 65, 0
66.774002, 64, 97
67.156682, 67, 91
67.163823, 64, 0
67.529938, 62, 93
67.570804, 67, 0
67.921807, 65, 80
67.949682, 62, 0
68.303253, 64, 93
68.356781, 65, 0
68.683988, 60, 97
68.708774, 64, 0
69.083594, 65, 87
69.146611, 60, 0
69.450136, 62, 81
69.481612, 65, 0
69.836084, 67, 87
69.856754, 62, 0
70.206667, 64, 86
70.250683, 67, 0
70.595812, 65, 87
70.647633, 64, 0
70.969541, 62, 93
70.991729, 65, 0
71.340782, 64, 100
71.369667, 62, 0
71.729960, 60, 89
71.749668, 64, 0
72.118860, 65, 91
72.185596, 60, 0
72.491623, 62, 89
72.520553, 65, 0
72.861514, 67, 91
72.892676, 62, 0
73.232342, 64, 84
73.272621, 67, 0
73.597686, 65, 85
73.641598, 64, 0
73.984036, 62, 86
74.029733, 65, 0
74.385658, 64, 97
74.407635, 62, 0
74.762674, 60, 95
74.784397, 64, 0
75.167956, 65, 89
75.226355, 60, 0
75.531099, 62, 87
75.566444, 65, 0
75.921531, 67, 91
75.945816, 62, 0
76.289564, 64, 79
76.312422, 67, 0
76.657540, 65, 89
76.717544, 64, 0
77.023875, 62, 87
77.056377, 65, 0
77.393654, 64, 93
77.437738, 62, 0
77.766401, 60, 87
77.798468, 64, 0
78.136815, 62, 93
78.173454, 60, 0
78.520839, 65, 87
78.562306, 62, 0
78.905326, 64, 100
78.922474, 65, 0
79.264305, 67, 91
79.287441, 64, 0
79.620267, 62, 98
79.676420, 67, 0
79.982497, 65, 85
80.013269, 62, 0
80.344286, 64, 97
80.412348, 65, 0
80.738295, 60, 98
80.755448, 64, 0
81.115432, 65, 93
81.173301, 60, 0
81.472352, 62, 83
81.511307, 65, 0
81.831293, 67, 93
81.849189, 62, 0
82.194187, 64, 81
82.256276, 67, 0
82.565240, 65, 87
82.624170, 64, 0
82.923473, 62, 86
82.969115, 65, 0
83.281172, 64, 95
83.317526, 62, 0
83.648530, 60, 93
83.678035, 64, 0
84.037442, 62, 87
84.152152, 60, 0
84.406305, 64, 97
84.437167, 62, 0
84.782291, 65, 80
84.826204, 64, 0
85.149214, 64, 83
85.194271, 65, 0
85.538085, 62, 87
85.568256, 64, 0
85.884337, 64, 81
85.923108, 62, 0
86.261621, 60, 98
86.283327, 64, 0
87.131743, 67, 95
87.168176, 60, 0
87.985197, 62, 93
88.038113, 67, 0
88.874129, 65, 91
88.883106, 62, 0
89.337472, 64, 89
89.369053, 65, 0
89.900292, 60, 100
89.904033, 64, 0
91.530854, 60, 0
