time, note, velocity
1.778727, 60, 89
2.363662, 62, 91
2.424660, 60, 0
3.044041, 64, 103
3.054714, 62, 0
3.752224, 65, 95
3.802613, 64, 0
4.421205, 67, 100
4.452591, 65, 0
5.083686, 69, 85
5.140631, 67, 0
5.842652, 71, 105
5.894862, 69, 0
6.545161, 69, 97
6.599516, 71, 0
7.236034, 67, 103
7.268536, 69, 0
7.930627, 65, 97
7.957619, 67, 0
8.613454, 64, 112
8.638386, 65, 0
9.291993, 65, 93
9.355451, 64, 0
9.930681, 67, 98
9.957347, 65, 0
10.581688, 69, 93
10.583409, 67, 0
11.215532, 71, 98
11.348491, 69, 0
11.855081, 72, 97
11.890450, 71, 0
12.501359, 72, 0
12.508321, 71, 100
13.166935, 69, 100
13.186372, 71, 0
13.803402, 67, 95
13.902549, 69, 0
14.460297, 65, 87
14.501390, 67, 0
15.019722, 64, 86
15.047429, 65, 0
15.631449, 62, 79
15.653495, 64, 0
16.267202, 60, 91
16.293248, 62, 0
16.885328, 62, 87
16.918349, 60, 0
17.507450, 64, 97
17.515144, 62, 0
18.120363, 65, 82
18.158249, 64, 0
18.724257, 65, 0
18.730125, 67, 83
19.329258, 69, 85
19.383258, 67, 0
19.905658, 71, 93
19.913283, 69, 0
20.517604, 72, 93
20.557116, 71, 0
21.114558, 71, 95
21.150148, 72, 0
21.728181, 69, 91
21.746058, 71, 0
22.340169, 67, 93
22.362012, 69, 0
22.905762, 65, 85
23.293115, 67, 0
23.464334, 64, 86
23.486137, 65, 0
24.006006, 62, 86
24.019941, 64, 0
24.533235, 60, 97
24.617444, 62, 0
25.053832, 62, 87
25.104959, 60, 0
25.542977, 64, 89
25.635065, 62, 0
25.979663, 65, 80
26.005039, 64, 0
26.374904, 67, 91
26.429197, 65, 0
26.745000, 67, 0
26.746343, 69, 87
27.131988, 71, 87
27.208837, 69, 0
27.514424, 72, 100
27.552062, 71, 0
27.899737, 71, 98
27.909065, 72, 0
28.283489, 69, 91
28.297806, 71, 0
28.667850, 67, 78
28.837683, 69, 0
29.041808, 65, 91
29.067014, 67, 0
29.422831, 64, 91
29.448873, 65, 0
29.795088, 62, 95
29.810885, 64, 0
30.183661, 60, 89
30.242789, 62, 0
30.557857, 62, 98
30.565952, 60, 0
30.928803, 64, 87
30.972869, 62, 0
31.282142, 65, 77
31.305806, 64, 0
31.652064, 67, 87
31.652587, 65, 0
32.015719, 69, 87
32.086762, 67, 0
32.375649, 71, 87
32.393909, 69, 0
32.753615, 72, 100
32.777726, 71, 0
33.137606, 71, 87
33.182786, 72, 0
33.527861, 69, 93
33.552766, 71, 0
33.915802, 67, 100
33.950685, 69, 0
34.280951, 65, 91
34.486639, 67, 0
34.658643, 64, 89
34.686701, 65, 0
35.027186, 62, 89
35.048743, 64, 0
35.396686, 60, 89
35.435591, 62, 0
35.744709, 62, 95
35.759676, 60, 0
36.103676, 64, 86
36.144672, 62, 0
36.454676, 65, 77
36.480656, 64, 0
36.806505, 65, 0
36.819506, 67, 85
37.171495, 69, 80
37.240518, 67, 0
37.542657, 71, 98
37.579666, 69, 0
37.904509, 72, 93
37.936515, 71, 0
38.272481, 71, 95
38.342576, 72, 0
38.663383, 69, 91
38.674446, 71, 0
39.047492, 67, 93
39.066439, 69, 0
39.407616, 65, 97
39.476492, 67, 0
39.791542, 64, 93
39.817390, 65, 0
40.141557, 62, 93
40.156395, 64, 0
40.512490, 60, 95
40.552494, 62, 0
40.852869, 62, 93
40.862694, 60, 0
41.219307, 64, 81
41.278430, 62, 0
41.609578, 65, 89
41.620315, 64, 0
41.996427, 67, 83
42.052445, 65, 0
42.343501, 69, 82
42.367454, 67, 0
42.683322, 71, 87
42.716243, 69, 0
43.042272, 72, 100
43.074334, 71, 0
43.400557, 71, 93
43.447524, 72, 0
43.774668, 69, 91
43.824475, 71, 0
44.139053, 67, 95
44.177347, 69, 0
44.547247, 65, 105
44.572382, 67, 0
44.982795, 64, 105
45.049417, 65, 0
45.446576, 62, 100
45.481459, 64, 0
46.006770, 60, 100
46.019386, 62, 0
46.667768, 62, 93
46.745425, 60, 0
47.301284, 64, 91
47.312236, 62, 0
47.944296, 65, 85
47.995237, 64, 0
48.581819, 67, 67
48.584239, 65, 0
49.210243, 69, 83
49.282212, 67, 0
49.799345, 71, 85
49.814253, 69, 0
50.439041, 72, 95
50.494202, 71, 0
51.179038, 71, 83
51.378155, 72, 0
51.836086, 69, 80
51.877197, 71, 0
52.510203, 67, 85
52.536974, 69, 0
53.135638, 65, 65
53.583266, 67, 0
53.781009, 64, 70
53.813006, 65, 0
54.451550, 62, 75
54.482853, 64, 0
55.108558, 60, 78
55.201067, 62, 0
55.736368, 62, 86
55.748936, 60, 0
56.416102, 64, 81
56.460903, 62, 0
57.049863, 65, 82
57.060986, 64, 0
57.705827, 67, 83
57.744845, 65, 0
58.377344, 69, 39
58.655843, 67, 0
59.016894, 71, 78
59.067844, 69, 0
59.675402, 72, 77
59.705972, 71, 0
60.326003, 72, 0
60.327871, 71, 82
60.964703, 69, 75
60.979729, 71, 0
61.626073, 67, 75
61.738806, 69, 0
62.252743, 65, 80
62.270213, 67, 0
62.914652, 65, 0
62.916485, 64, 91
63.582706, 62, 86
63.591783, 64, 0
64.307074, 60, 91
64.327980, 62, 0
65.032448, 62, 84
65.059761, 60, 0
65.683696, 62, 0
65.695680, 64, 76
66.354718, 65, 83
66.381594, 64, 0
66.964630, 65, 0
66.967937, 67, 91
67.561137, 69, 78
67.615692, 67, 0
67.926697, 71, 82
67.953547, 69, 0
68.246029, 72, 93
68.258497, 71, 0
69.739513, 71, 91
69.800682, 72, 0
70.095711, 69, 98
70.131454, 71, 0
70.519915, 67, 97
70.533450, 69, 0
71.614482, 67, 0
71.651793, 65, 85
72.006624, 64, 91
72.047467, 65, 0
72.332531, 62, 98
72.359233, 64, 0
73.348471, 60, 98
73.400337, 62, 0
74.321413, 62, 87
74.337326, 60, 0
74.669438, 64, 87
74.744453, 62, 0
74.996528, 65, 95
75.024639, 64, 0
75.321691, 67, 89
75.352477, 65, 0
75.640109, 67, 0
75.660931, 69, 91
76.013528, 71, 100
76.062407, 69, 0
76.674384, 72, 105
76.710353, 71, 0
77.696928, 71, 91
77.739149, 72, 0
78.044383, 69, 78
78.064343, 71, 0
78.384798, 67, 80
78.443325, 69, 0
78.720329, 65, 82
78.810212, 67, 0
79.050568, 64, 79
79.084250, 65, 0
79.372107, 62, 87
79.384305, 64, 0
79.711237, 60, 89
79.795268, 62, 0
80.691253, 62, 87
80.745142, 60, 0
81.027137, 64, 81
81.064032, 62, 0
81.341776, 65, 95
81.379189, 64, 0
81.894485, 64, 91
81.959215, 65, 0
82.235469, 62, 89
82.292101, 64, 0
82.564920, 60, 103
82.585087, 62, 0
83.190014, 62, 93
83.226984, 60, 0
83.556569, 64, 91
83.583270, 62, 0
83.950598, 65, 91
83.997040, 64, 0
84.584456, 64, 86
84.630984, 65, 0
84.989002, 62, 93
85.032073, 64, 0
85.483313, 60, 100
85.515150, 62, 0
87.890751, 60, 0
