time, note, velocity
3.353765, 60, 47
3.669799, 62, 79
3.736764, 60, 0
3.953892, 64, 91
4.001808, 62, 0
4.251978, 65, 85
4.319816, 64, 0
4.539069, 67, 97
4.603719, 65, 0
4.824846, 65, 97
4.882841, 67, 0
5.110913, 64, 93
5.207816, 65, 0
5.409879, 62, 91
5.443690, 64, 0
5.690036, 60, 91
5.737860, 62, 0
5.981180, 62, 84
6.039815, 60, 0
6.271379, 64, 87
6.320916, 62, 0
6.567974, 65, 77
6.630821, 64, 0
6.864340, 67, 91
6.938526, 65, 0
7.140547, 65, 85
7.197831, 67, 0
7.438780, 64, 95
7.517796, 65, 0
7.745707, 62, 98
7.785703, 64, 0
8.026990, 60, 95
8.085679, 62, 0
8.331902, 62, 95
8.513767, 60, 0
8.614530, 64, 95
8.666587, 62, 0
8.904668, 65, 83
8.973617, 64, 0
9.222713, 67, 95
9.282808, 65, 0
9.500113, 65, 82
9.559579, 67, 0
9.786556, 64, 91
9.878716, 65, 0
10.075705, 62, 91
10.100684, 64, 0
10.374711, 60, 87
10.410706, 62, 0
10.671717, 62, 73
10.751664, 60, 0
10.965379, 64, 78
10.999528, 62, 0
11.253715, 65, 75
11.293661, 64, 0
11.535694, 67, 78
11.598545, 65, 0
11.832140, 65, 85
11.884606, 67, 0
12.131626, 64, 87
12.242645, 65, 0
12.420868, 62, 98
12.456648, 64, 0
12.714468, 60, 98
12.757564, 62, 0
13.015573, 62, 98
13.052414, 60, 0
13.293964, 64, 93
13.345508, 62, 0
13.569646, 65, 83
13.617533, 64, 0
13.844000, 67, 87
13.905125, 65, 0
14.134228, 65, 85
14.189760, 67, 0
14.418669, 64, 87
14.550391, 65, 0
14.675316, 62, 95
14.710368, 64, 0
14.972468, 60, 98
15.016561, 62, 0
15.278782, 62, 100
15.449493, 60, 0
15.545331, 64, 95
15.587593, 62, 0
15.815511, 65, 78
15.871335, 64, 0
16.096927, 67, 91
16.155472, 65, 0
16.384615, 65, 89
16.439470, 67, 0
16.664277, 64, 89
16.761310, 65, 0
16.959618, 62, 95
16.995338, 64, 0
17.251430, 60, 95
17.290482, 62, 0
17.543577, 62, 95
17.601333, 60, 0
17.816865, 64, 93
17.861452, 62, 0
18.108431, 65, 80
18.171304, 64, 0
18.393306, 67, 93
18.729293, 67, 0
18.960187, 64, 93
19.026477, 65, 0
19.237582, 62, 91
19.270378, 64, 0
19.509836, 60, 91
19.536250, 62, 0
19.784383, 62, 91
19.814333, 60, 0
20.061343, 64, 93
20.087295, 62, 0
20.331271, 65, 87
20.617448, 67, 95
20.625235, 64, 0
20.798282, 65, 0
20.906780, 65, 43
20.966173, 67, 0
21.203269, 64, 93
21.263348, 65, 0
21.467458, 62, 87
21.497286, 64, 0
21.759937, 60, 91
21.781486, 62, 0
22.046275, 62, 97
22.077191, 60, 0
22.315396, 64, 91
22.351090, 62, 0
22.572206, 65, 83
22.851220, 64, 0
22.852628, 67, 93
22.885358, 65, 0
23.150507, 65, 87
23.191142, 67, 0
23.426859, 64, 89
23.501199, 65, 0
23.699139, 62, 91
23.724116, 64, 0
23.984165, 60, 97
24.016448, 62, 0
24.264142, 62, 95
24.300179, 60, 0
24.531663, 64, 98
24.573103, 62, 0
24.788159, 65, 85
24.849202, 64, 0
25.072669, 67, 93
25.272304, 65, 0
25.355569, 65, 50
25.426219, 67, 0
25.633474, 64, 91
25.705143, 65, 0
25.899501, 62, 84
25.931092, 64, 0
26.184342, 60, 83
26.216186, 62, 0
26.446701, 62, 86
26.487077, 60, 0
26.732055, 64, 91
26.770976, 62, 0
26.993126, 65, 87
27.052003, 64, 0
27.271004, 67, 95
27.398135, 65, 0
27.558100, 65, 89
27.615966, 67, 0
27.841111, 64, 87
27.893021, 65, 0
28.112342, 62, 84
28.144021, 64, 0
28.403249, 60, 86
28.441114, 62, 0
28.718991, 62, 91
28.808029, 60, 0
29.020219, 64, 98
29.054017, 62, 0
29.291930, 65, 80
29.350005, 64, 0
29.618909, 67, 93
29.677939, 65, 0
29.911056, 65, 91
29.953255, 67, 0
30.209135, 64, 97
30.284046, 65, 0
30.497118, 62, 97
30.524051, 64, 0
30.794912, 60, 89
30.832026, 62, 0
31.083412, 62, 98
31.119823, 60, 0
31.370002, 64, 100
31.417174, 62, 0
31.651068, 65, 83
31.713866, 64, 0
31.950984, 67, 93
32.001106, 65, 0
32.241428, 65, 89
32.286012, 67, 0
32.519983, 64, 95
32.589843, 65, 0
32.816843, 62, 97
32.836777, 64, 0
33.100359, 60, 103
33.132965, 62, 0
33.397332, 62, 93
33.439874, 60, 0
33.670792, 64, 91
33.719126, 62, 0
33.934792, 65, 74
34.004937, 64, 0
34.230984, 67, 78
34.286758, 65, 0
34.529763, 65, 80
34.573431, 67, 0
34.819889, 64, 78
34.893896, 65, 0
35.092366, 62, 78
35.141865, 64, 0
35.377757, 60, 87
35.404799, 62, 0
35.672859, 62, 87
35.707822, 60, 0
35.955839, 64, 79
35.982833, 62, 0
36.236752, 65, 69
36.276728, 64, 0
36.514053, 67, 85
36.547775, 65, 0
36.793906, 65, 68
36.845775, 67, 0
37.078775, 64, 73
37.165646, 65, 0
37.354682, 62, 81
37.396781, 64, 0
37.648869, 60, 89
37.684777, 62, 0
37.924672, 62, 83
37.971781, 60, 0
38.226287, 64, 86
38.259605, 62, 0
38.471786, 65, 72
38.501782, 64, 0
38.767834, 67, 85
38.986541, 65, 0
39.048598, 65, 40
39.088679, 67, 0
39.331712, 64, 76
39.383674, 65, 0
39.604310, 62, 81
39.628672, 64, 0
39.900566, 60, 97
39.928691, 62, 0
40.170826, 62, 87
40.200569, 60, 0
40.461486, 64, 95
40.501633, 62, 0
40.737238, 65, 75
40.791572, 64, 0
41.027416, 67, 85
41.094502, 65, 0
41.309850, 65, 69
41.345549, 67, 0
41.597720, 64, 68
41.656556, 65, 0
41.858254, 62, 79
41.891434, 64, 0
42.136494, 60, 93
42.169628, 62, 0
42.392618, 62, 78
42.444530, 60, 0
42.668684, 64, 89
42.706419, 62, 0
42.937249, 65, 82
42.983605, 64, 0
43.227615, 67, 85
43.366608, 65, 0
43.489355, 65, 75
43.568352, 67, 0
43.779737, 64, 79
43.879541, 65, 0
44.025600, 62, 76
44.050688, 64, 0
44.332869, 60, 95
44.359448, 62, 0
44.602567, 62, 81
44.635603, 60, 0
44.876640, 64, 89
44.906487, 62, 0
45.122505, 65, 69
45.174537, 64, 0
45.450707, 67, 93
45.480608, 65, 0
45.704438, 65, 77
45.727578, 67, 0
46.011767, 64, 79
46.080437, 65, 0
46.279341, 62, 84
46.313440, 64, 0
46.557903, 60, 91
46.604358, 62, 0
46.828524, 62, 79
46.862400, 60, 0
47.098349, 64, 75
47.123445, 62, 0
47.370070, 65, 78
47.449410, 64, 0
47.654241, 67, 87
47.698507, 65, 0
47.926721, 65, 77
47.948474, 67, 0
48.228421, 64, 84
48.389360, 65, 0
48.478422, 62, 81
48.514311, 64, 0
48.752441, 60, 100
48.785385, 62, 0
49.028562, 62, 83
49.066446, 60, 0
49.306365, 64, 93
49.331341, 62, 0
49.564978, 65, 67
49.624311, 64, 0
49.850886, 67, 87
49.891591, 65, 0
50.132560, 65, 75
50.151286, 67, 0
50.414459, 64, 78
50.615425, 65, 0
50.660921, 62, 86
50.723502, 64, 0
50.952511, 60, 95
50.998331, 62, 0
51.227810, 62, 78
51.257390, 60, 0
51.492248, 64, 93
51.541382, 62, 0
51.775649, 65, 75
51.816174, 64, 0
52.056208, 67, 91
52.097444, 65, 0
52.335130, 65, 83
52.381330, 67, 0
52.607070, 64, 79
52.687237, 65, 0
52.890033, 62, 91
52.912286, 64, 0
53.169275, 60, 97
53.211120, 62, 0
53.446629, 62, 95
53.488261, 60, 0
53.715666, 64, 93
53.765211, 62, 0
53.965316, 65, 80
54.041074, 64, 0
54.254121, 67, 91
54.312232, 65, 0
54.513417, 65, 77
54.545154, 67, 0
54.806324, 64, 78
54.903366, 65, 0
55.050388, 62, 83
55.070314, 64, 0
55.331963, 60, 91
55.352935, 62, 0
55.623196, 62, 86
55.649125, 60, 0
55.876927, 64, 87
55.897036, 62, 0
56.144678, 65, 69
56.160102, 64, 0
56.446297, 67, 82
56.490160, 65, 0
56.718202, 65, 78
56.753180, 67, 0
57.005210, 64, 79
57.097033, 65, 0
57.256507, 62, 83
57.280125, 64, 0
57.549273, 60, 93
57.585269, 62, 0
57.811124, 62, 91
57.845119, 60, 0
58.096995, 64, 97
58.126122, 62, 0
58.364073, 65, 75
58.416171, 64, 0
58.650034, 67, 85
58.700982, 65, 0
58.903110, 65, 82
58.964073, 67, 0
59.206139, 64, 76
59.296090, 65, 0
59.472442, 62, 83
59.497817, 64, 0
59.756838, 60, 103
59.767059, 62, 0
61.229042, 60, 0
