time, note, velocity
3.719975, 60, 78
4.176034, 62, 86
4.209965, 60, 0
4.621177, 64, 93
4.643786, 62, 0
5.099320, 65, 87
5.139855, 64, 0
5.576922, 65, 0
5.586507, 67, 91
6.096297, 69, 83
6.133739, 67, 0
6.567964, 71, 97
6.602807, 69, 0
7.078298, 72, 95
7.104688, 71, 0
7.591818, 71, 93
7.657872, 72, 0
8.095934, 69, 87
8.125900, 71, 0
8.577842, 67, 87
8.605915, 69, 0
9.033779, 65, 87
9.167677, 67, 0
9.529772, 64, 87
9.565831, 65, 0
9.996101, 62, 93
10.018809, 64, 0
10.476912, 60, 93
10.546710, 62, 0
10.980668, 62, 95
10.993872, 60, 0
11.470947, 64, 89
11.511623, 62, 0
11.952686, 65, 87
11.985662, 64, 0
12.389023, 67, 87
12.418662, 65, 0
12.873504, 67, 0
12.883667, 69, 89
13.352760, 71, 95
13.424506, 69, 0
13.840978, 72, 95
13.860634, 71, 0
14.346786, 71, 83
14.373661, 72, 0
14.817712, 69, 83
14.840445, 71, 0
15.303221, 67, 80
15.352489, 69, 0
15.768465, 65, 91
15.809537, 67, 0
16.272632, 64, 91
16.294440, 65, 0
16.745530, 62, 84
16.798351, 64, 0
17.238194, 60, 98
17.258489, 62, 0
17.702873, 62, 91
17.752259, 60, 0
18.180124, 64, 91
18.209410, 62, 0
18.648138, 65, 93
18.648285, 64, 0
19.100313, 67, 83
19.147530, 65, 0
19.563202, 69, 85
19.597433, 67, 0
20.031147, 71, 95
20.037251, 69, 0
20.520426, 72, 93
20.577425, 71, 0
20.994225, 71, 93
21.033371, 72, 0
21.470252, 69, 74
21.607308, 71, 0
21.915644, 67, 91
21.997432, 69, 0
22.375255, 65, 93
22.399333, 67, 0
22.857521, 64, 98
22.936281, 65, 0
23.307381, 62, 93
23.329145, 64, 0
23.792316, 60, 95
23.842297, 62, 0
24.249625, 62, 87
24.312288, 60, 0
24.719452, 64, 87
24.746080, 62, 0
25.175489, 65, 82
25.181253, 64, 0
25.631221, 67, 87
25.708316, 65, 0
26.092417, 69, 85
26.150451, 67, 0
26.544243, 71, 91
26.656165, 69, 0
27.033049, 72, 98
27.086287, 71, 0
27.485177, 71, 98
27.534195, 72, 0
27.995037, 69, 87
28.048221, 71, 0
28.446302, 67, 85
28.500115, 69, 0
28.925098, 65, 91
28.947031, 67, 0
29.378130, 64, 87
29.851972, 62, 93
29.859107, 65, 0
29.986051, 64, 0
30.332010, 60, 100
30.358906, 62, 0
30.811034, 62, 84
30.840901, 60, 0
31.300882, 64, 93
31.320983, 62, 0
31.755986, 64, 0
31.759938, 65, 89
32.231805, 67, 87
32.274758, 65, 0
32.686999, 69, 91
32.709071, 67, 0
33.135298, 71, 87
33.168826, 69, 0
33.577831, 72, 91
33.631103, 71, 0
34.030078, 71, 93
34.067909, 72, 0
34.496415, 69, 89
34.558873, 71, 0
34.956980, 67, 95
35.001010, 69, 0
35.426750, 65, 98
35.448620, 67, 0
35.853907, 64, 93
36.293804, 62, 91
36.295966, 65, 0
36.338909, 64, 0
36.742131, 60, 98
36.766892, 62, 0
37.218787, 62, 89
37.259696, 60, 0
37.675168, 64, 97
37.710589, 62, 0
38.131719, 64, 0
38.134833, 65, 91
38.589743, 67, 83
38.649714, 65, 0
39.063436, 69, 91
39.099840, 67, 0
39.523448, 71, 89
39.573708, 69, 0
39.987659, 72, 87
40.009708, 71, 0
40.475141, 71, 83
40.513624, 72, 0
40.952676, 69, 89
40.991697, 71, 0
41.416980, 67, 85
41.445522, 69, 0
41.917316, 65, 74
41.927647, 67, 0
42.390614, 64, 84
42.459443, 65, 0
42.863864, 62, 78
42.882576, 64, 0
43.356709, 60, 93
43.377856, 62, 0
43.835823, 62, 76
43.873699, 60, 0
44.305651, 64, 78
44.331674, 62, 0
44.727592, 64, 0
44.758791, 65, 53
45.210952, 67, 56
45.242514, 65, 0
45.707593, 69, 60
45.726475, 67, 0
46.189429, 71, 82
46.220448, 69, 0
46.680481, 72, 72
46.711532, 71, 0
47.149836, 71, 89
47.192787, 72, 0
47.665639, 69, 63
47.720496, 71, 0
48.109411, 67, 89
48.128384, 69, 0
48.593681, 65, 74
48.619351, 67, 0
49.103494, 64, 84
49.171353, 65, 0
49.585432, 62, 73
49.601381, 64, 0
50.078872, 60, 89
50.098456, 62, 0
50.557614, 62, 69
50.603316, 60, 0
51.031324, 64, 70
51.044161, 62, 0
51.476277, 64, 0
51.505829, 65, 75
51.977272, 67, 85
52.018432, 65, 0
52.451337, 69, 68
52.475341, 67, 0
52.897987, 71, 80
52.919386, 69, 0
53.363816, 72, 80
53.381460, 71, 0
53.830290, 71, 75
53.835184, 72, 0
54.283789, 69, 69
54.334367, 71, 0
54.771317, 67, 78
54.790302, 69, 0
55.248788, 65, 72
55.255292, 67, 0
55.714260, 64, 79
55.764311, 65, 0
56.183362, 62, 86
56.196231, 64, 0
56.652855, 60, 95
56.749068, 62, 0
57.124113, 62, 97
57.127177, 60, 0
57.597029, 64, 93
57.657960, 62, 0
58.059147, 65, 85
58.082063, 64, 0
58.531216, 65, 0
58.533934, 67, 97
59.000348, 69, 91
59.050050, 67, 0
59.463073, 71, 98
59.493111, 69, 0
59.943033, 71, 0
59.946284, 72, 100
60.414047, 71, 105
60.470844, 72, 0
60.876898, 69, 93
60.901949, 71, 0
61.354157, 67, 93
61.371953, 69, 0
61.811385, 65, 87
61.872924, 67, 0
62.258928, 64, 83
62.292918, 65, 0
62.706043, 62, 91
62.728960, 64, 0
63.162097, 60, 78
63.192889, 62, 0
63.192909, 59, 41
63.267155, 59, 0
63.631896, 62, 84
63.802888, 60, 0
64.106050, 64, 87
64.139857, 62, 0
64.577522, 65, 93
64.599048, 64, 0
65.053044, 65, 0
65.056251, 67, 91
65.510073, 69, 83
65.552840, 67, 0
65.967062, 71, 93
65.991919, 69, 0
66.447005, 72, 98
66.474979, 71, 0
66.908966, 71, 91
66.926957, 72, 0
67.382913, 69, 78
67.401857, 71, 0
67.866818, 67, 98
67.911851, 69, 0
68.333043, 65, 83
68.788832, 67, 0
68.797064, 64, 100
68.801672, 65, 0
69.241265, 62, 89
69.266930, 64, 0
69.696831, 60, 93
69.757537, 62, 0
70.157598, 62, 79
70.160805, 60, 0
70.622848, 64, 78
70.669766, 62, 0
71.080679, 65, 77
71.105784, 64, 0
71.550781, 65, 0
71.557402, 67, 89
72.016582, 69, 80
72.052619, 67, 0
72.461563, 71, 93
72.477688, 69, 0
72.928543, 72, 87
72.939700, 71, 0
73.387592, 71, 91
73.422534, 72, 0
73.852693, 69, 87
73.885570, 71, 0
74.351623, 67, 87
74.364441, 69, 0
74.790128, 65, 80
75.236572, 67, 0
75.259899, 64, 95
75.281633, 65, 0
75.716576, 62, 91
75.739476, 64, 0
76.172082, 60, 86
76.241550, 62, 0
76.635470, 62, 91
76.647556, 60, 0
77.097594, 64, 89
77.161550, 62, 0
77.493575, 65, 69
77.554537, 64, 0
77.978484, 67, 91
78.010452, 65, 0
78.441510, 67, 0
78.444808, 69, 91
78.923414, 71, 95
78.976341, 69, 0
79.399525, 72, 97
79.429367, 71, 0
79.882439, 71, 103
79.887402, 72, 0
80.356555, 69, 98
80.382307, 71, 0
80.820128, 67, 97
80.902305, 69, 0
81.286615, 65, 91
81.316386, 67, 0
81.776607, 64, 83
81.816247, 65, 0
82.238276, 62, 83
82.285207, 64, 0
82.731341, 60, 93
82.756239, 62, 0
83.185731, 62, 78
83.219205, 60, 0
83.661177, 64, 91
83.685263, 62, 0
84.112283, 64, 0
84.118296, 65, 91
84.594159, 67, 83
84.640248, 65, 0
85.049252, 69, 95
85.085347, 67, 0
85.534239, 69, 0
85.551313, 71, 75
86.011061, 72, 93
86.061191, 71, 0
86.476482, 71, 87
86.486176, 72, 0
86.926214, 69, 97
86.987282, 71, 0
87.375549, 67, 100
87.396010, 69, 0
87.848257, 65, 103
87.871366, 67, 0
88.334057, 64, 100
88.356130, 65, 0
88.770173, 62, 91
88.827120, 64, 0
89.253445, 60, 98
89.257119, 62, 0
89.712069, 62, 91
89.756034, 60, 0
90.167917, 64, 97
90.199971, 62, 0
90.603240, 65, 85
90.633927, 64, 0
91.041967, 65, 0
91.053376, 67, 93
91.514071, 69, 82
91.577232, 67, 0
91.960070, 71, 100
91.995989, 69, 0
92.432979, 72, 103
92.475009, 71, 0
92.897501, 71, 103
92.946985, 72, 0
93.360000, 69, 93
93.409969, 71, 0
93.810986, 67, 93
93.838111, 69, 0
94.265794, 65, 97
94.434820, 67, 0
94.706192, 64, 91
94.741865, 65, 0
95.132718, 62, 95
95.151093, 64, 0
95.591819, 60, 95
95.654880, 62, 0
96.038673, 60, 0
96.044950, 62, 87
96.506355, 64, 93
96.552046, 62, 0
96.948889, 65, 87
96.978853, 64, 0
97.426808, 67, 91
97.468768, 65, 0
97.852886, 67, 0
97.878262, 69, 93
98.350339, 71, 95
98.419746, 69, 0
98.827812, 72, 103
98.848825, 71, 0
99.267654, 71, 87
99.290611, 72, 0
99.722536, 69, 100
99.748627, 71, 0
100.218785, 67, 91
100.291754, 69, 0
100.666761, 65, 82
100.719997, 67, 0
101.098905, 64, 91
101.122734, 65, 0
101.553599, 62, 97
101.604721, 64, 0
102.042677, 60, 105
102.061639, 62, 0
104.691552, 60, 0
