time, note, velocity
1.896161, 60, 81
2.588071, 62, 93
2.624722, 60, 0
3.318854, 65, 91
3.349661, 62, 0
4.009634, 64, 98
4.023771, 65, 0
5.079707, 62, 91
5.124765, 64, 0
5.430710, 60, 97
5.462852, 62, 0
6.107625, 64, 93
6.163745, 60, 0
6.791923, 62, 91
6.819607, 64, 0
7.878029, 64, 89
7.921612, 62, 0
8.275465, 65, 97
8.518660, 64, 0
9.009755, 67, 98
9.051432, 65, 0
9.739430, 62, 72
9.750474, 64, 79
9.770547, 67, 0
9.803583, 64, 0
10.470858, 65, 82
10.499464, 62, 0
10.842407, 64, 89
10.887376, 65, 0
11.198566, 62, 97
11.233481, 64, 0
11.550543, 64, 93
11.583577, 62, 0
11.874654, 60, 97
11.889483, 64, 0
12.610483, 62, 91
12.665447, 60, 0
13.350324, 65, 91
13.380458, 62, 0
14.124930, 64, 93
14.161264, 65, 0
15.255125, 62, 93
15.285107, 64, 0
15.597873, 60, 91
15.625393, 62, 0
15.913602, 67, 67
15.944295, 60, 0
15.969244, 65, 22
16.035229, 65, 0
16.303767, 65, 89
16.330436, 67, 0
17.069234, 64, 93
17.101239, 65, 0
18.172209, 62, 93
18.219317, 64, 0
18.544105, 65, 80
18.586377, 62, 0
18.908926, 64, 83
18.976244, 65, 0
19.268434, 60, 98
19.297210, 64, 0
19.624977, 62, 95
19.777250, 60, 0
20.018126, 65, 91
20.049124, 62, 0
20.755362, 64, 98
20.805168, 65, 0
21.509085, 67, 98
21.541023, 64, 0
22.357057, 65, 93
22.421099, 67, 0
23.196136, 64, 93
23.266934, 65, 0
24.100100, 62, 91
24.144034, 64, 0
25.094161, 65, 89
25.129908, 62, 0
26.211172, 64, 89
26.255174, 65, 0
27.569163, 60, 76
27.617846, 64, 0
28.839785, 62, 76
28.969831, 60, 0
29.309756, 64, 78
29.355874, 62, 0
29.828808, 65, 71
29.859837, 64, 0
30.931596, 64, 72
30.983811, 65, 0
31.465840, 62, 70
31.496701, 64, 0
32.047758, 67, 62
32.070764, 62, 0
32.865820, 67, 0
33.318771, 64, 78
34.002807, 64, 0
34.389823, 60, 81
35.090529, 60, 0
35.491563, 62, 76
35.973454, 65, 75
35.995802, 62, 0
36.498562, 64, 86
36.545601, 65, 0
37.091530, 64, 0
37.587128, 67, 80
38.252537, 67, 0
38.586976, 62, 87
39.232524, 62, 0
39.598717, 65, 75
40.112205, 64, 83
40.143587, 65, 0
40.596740, 60, 86
40.618525, 64, 0
41.098408, 62, 87
41.164579, 60, 0
41.794514, 62, 0
42.156624, 65, 78
42.680592, 64, 89
42.685260, 65, 0
43.158290, 64, 0
43.160366, 67, 80
43.686758, 62, 89
43.724308, 67, 0
44.601490, 62, 0
45.055477, 67, 58
45.560820, 64, 84
45.615630, 67, 0
46.009405, 65, 80
46.052264, 64, 0
46.490293, 62, 95
46.548345, 65, 0
46.994177, 64, 91
47.032162, 62, 0
47.455363, 60, 89
47.498186, 64, 0
47.950412, 62, 89
48.001524, 60, 0
48.445523, 65, 85
48.486551, 62, 0
48.933395, 64, 93
49.058316, 65, 0
49.428283, 67, 85
49.453417, 64, 0
49.923228, 65, 87
49.968000, 67, 0
50.396577, 62, 78
50.438309, 65, 0
50.863095, 64, 86
50.910174, 62, 0
51.346498, 60, 89
51.366156, 64, 0
51.835422, 62, 87
51.896270, 60, 0
52.339570, 65, 83
52.376207, 62, 0
52.820387, 64, 87
52.874014, 65, 0
53.299081, 67, 85
53.308111, 64, 0
53.328093, 65, 25
53.565982, 65, 0
53.791084, 64, 70
53.848175, 67, 0
54.258145, 65, 77
54.290020, 64, 0
54.749110, 62, 84
54.798959, 65, 0
55.226901, 60, 84
55.254921, 62, 0
55.717985, 62, 89
55.763930, 60, 0
56.223004, 65, 83
56.256050, 62, 0
56.728933, 64, 84
56.764758, 65, 0
57.220903, 67, 82
57.226845, 64, 0
57.700468, 65, 80
57.733002, 67, 0
58.188528, 62, 86
58.248010, 65, 0
58.677335, 64, 86
58.706981, 62, 0
59.142842, 60, 86
59.176992, 64, 0
59.609606, 62, 79
59.672833, 60, 0
60.077230, 64, 86
60.124879, 62, 0
60.554890, 65, 71
60.613893, 64, 0
60.997768, 67, 82
61.058916, 65, 0
61.472394, 60, 86
61.518812, 67, 0
61.933789, 65, 72
62.006819, 60, 0
62.376302, 64, 81
62.461843, 65, 0
62.856922, 62, 84
63.279939, 60, 79
63.291658, 64, 0
63.328770, 62, 0
63.788963, 62, 83
63.852017, 60, 0
64.731831, 64, 83
64.778724, 62, 0
65.200843, 65, 82
65.269728, 64, 0
65.641828, 67, 83
65.692686, 65, 0
66.085836, 62, 79
66.146716, 67, 0
66.536671, 65, 82
66.579784, 62, 0
66.999709, 64, 84
67.173754, 65, 0
67.438028, 60, 93
67.462724, 64, 0
68.410856, 62, 87
68.458684, 60, 0
68.881811, 64, 86
68.911812, 62, 0
69.311681, 65, 80
69.364456, 64, 0
70.287318, 64, 84
70.356706, 65, 0
70.765463, 62, 93
70.790435, 64, 0
71.236458, 67, 91
71.255570, 62, 0
72.215557, 65, 85
72.298541, 67, 0
73.211487, 64, 89
73.293243, 65, 0
74.197216, 62, 83
74.233425, 64, 0
74.639666, 64, 83
74.666363, 62, 0
75.129014, 60, 91
75.147390, 64, 0
76.098340, 67, 91
77.056420, 62, 89
77.058092, 60, 0
77.133472, 67, 0
77.542399, 65, 85
77.593313, 62, 0
78.008949, 64, 89
78.053305, 65, 0
78.430180, 60, 83
78.482185, 64, 0
78.929457, 62, 97
79.082197, 60, 0
79.936099, 67, 89
79.979136, 62, 0
80.867275, 64, 87
80.929099, 67, 0
81.312215, 65, 72
81.369090, 64, 0
81.757289, 62, 78
81.820022, 65, 0
82.711146, 60, 87
82.742910, 62, 0
83.662447, 67, 85
83.724955, 60, 0
84.665643, 62, 84
84.714973, 67, 0
85.113162, 65, 77
85.154211, 62, 0
85.568207, 64, 86
85.641974, 65, 0
86.555044, 62, 91
86.588054, 64, 0
87.584545, 65, 71
87.616871, 62, 0
88.114882, 64, 81
88.178935, 65, 0
88.673978, 60, 72
88.688169, 64, 0
90.767899, 60, 0
