time, note, velocity
3.719500, 60, 62
4.163919, 62, 83
4.221423, 60, 0
4.606522, 64, 93
4.648131, 62, 0
5.086423, 65, 91
5.096595, 64, 0
5.568301, 67, 89
5.610369, 65, 0
6.015977, 69, 89
6.054238, 67, 0
6.461243, 71, 93
6.520405, 69, 0
6.926198, 71, 0
6.930563, 72, 98
7.413393, 74, 89
7.470348, 72, 0
7.856337, 76, 91
7.895113, 74, 0
8.337051, 77, 89
8.338066, 76, 0
8.808785, 79, 87
8.864219, 77, 0
9.257652, 81, 77
9.291277, 79, 0
9.720229, 83, 82
9.775254, 81, 0
10.186221, 84, 89
10.241403, 83, 0
10.644711, 83, 89
10.703289, 84, 0
11.122229, 81, 82
11.177267, 83, 0
11.583230, 79, 89
11.610233, 81, 0
12.036236, 77, 85
12.073340, 79, 0
12.505376, 76, 83
12.580129, 77, 0
12.968477, 74, 87
12.997120, 76, 0
13.412440, 72, 91
13.418153, 74, 0
13.872027, 71, 85
13.924076, 72, 0
14.328084, 69, 80
14.367043, 71, 0
14.779139, 67, 82
14.813881, 69, 0
15.231222, 65, 83
15.248043, 67, 0
15.709274, 64, 86
15.769972, 65, 0
16.157087, 62, 83
16.185897, 64, 0
16.595775, 60, 97
16.645778, 62, 0
17.091035, 62, 79
17.132015, 60, 0
17.560068, 64, 78
17.590003, 62, 0
18.011975, 64, 0
18.031986, 65, 85
18.483817, 67, 78
18.543021, 65, 0
18.934150, 69, 74
18.970820, 67, 0
19.389490, 71, 77
19.445828, 69, 0
19.818944, 71, 0
19.839363, 72, 77
20.305760, 74, 83
20.370767, 72, 0
20.742056, 76, 82
20.766730, 74, 0
21.188830, 76, 0
21.200937, 77, 78
21.633809, 79, 77
21.675890, 77, 0
22.078716, 81, 75
22.127868, 79, 0
22.517783, 83, 82
22.552665, 81, 0
22.969167, 84, 93
23.027558, 83, 0
23.420320, 83, 82
23.474722, 84, 0
23.889833, 81, 82
23.961839, 83, 0
24.357722, 79, 87
24.383622, 81, 0
24.810577, 77, 83
24.844715, 79, 0
25.264577, 76, 78
25.331812, 77, 0
25.709659, 74, 74
25.740726, 76, 0
26.147892, 72, 89
26.158677, 74, 0
26.641063, 71, 85
26.701672, 72, 0
27.086693, 69, 80
27.134538, 71, 0
27.506952, 67, 91
27.523566, 69, 0
27.946426, 65, 82
27.999894, 67, 0
28.370795, 64, 84
28.429609, 65, 0
28.813487, 62, 83
28.836706, 64, 0
29.269915, 60, 95
29.288438, 62, 0
29.721730, 62, 79
29.785855, 60, 0
30.163714, 64, 84
30.191684, 62, 0
30.579440, 64, 0
30.588639, 65, 83
31.022409, 67, 80
31.077597, 65, 0
31.465510, 69, 78
31.507884, 67, 0
31.916517, 71, 91
31.968464, 69, 0
32.355410, 71, 0
32.366888, 72, 71
32.825534, 74, 87
32.878394, 72, 0
33.255518, 76, 91
33.293450, 74, 0
33.703501, 77, 75
33.708367, 76, 0
34.138381, 79, 83
34.173615, 77, 0
34.565556, 81, 75
34.597358, 79, 0
35.001979, 83, 85
35.033379, 81, 0
35.457059, 84, 89
35.491336, 83, 0
35.900474, 83, 85
35.954409, 84, 0
36.350281, 81, 69
36.380294, 83, 0
36.792245, 79, 85
36.822328, 81, 0
37.221522, 77, 85
37.241178, 79, 0
37.674587, 76, 85
37.810347, 77, 0
38.112571, 74, 85
38.149327, 76, 0
38.548893, 72, 85
38.561326, 74, 0
38.993252, 71, 82
39.095265, 72, 0
39.408116, 69, 78
39.460301, 71, 0
39.851282, 67, 75
39.864246, 69, 0
40.267175, 65, 77
40.291184, 67, 0
40.701284, 64, 72
40.757357, 65, 0
41.136187, 62, 83
41.147061, 64, 0
41.587302, 60, 89
41.599201, 62, 0
42.009094, 62, 75
42.073218, 60, 0
42.459293, 64, 81
42.473221, 62, 0
42.859135, 64, 0
42.878999, 65, 74
43.299319, 67, 77
43.340022, 65, 0
43.727044, 69, 75
43.768116, 67, 0
44.146714, 71, 78
44.201147, 69, 0
44.538231, 71, 0
44.565409, 72, 53
44.574687, 71, 77
44.710989, 71, 0
44.987032, 74, 78
45.030861, 72, 0
45.403352, 76, 87
45.435259, 74, 0
45.794040, 76, 0
45.799433, 77, 91
46.212100, 79, 89
46.247134, 77, 0
46.610959, 81, 77
46.644959, 79, 0
46.996921, 83, 83
47.030109, 81, 0
47.388906, 84, 93
47.436866, 83, 0
47.758941, 83, 82
47.809953, 84, 0
48.192397, 81, 80
48.250090, 83, 0
48.602865, 79, 83
48.801805, 81, 0
49.013016, 77, 91
49.034748, 79, 0
49.392896, 76, 89
49.766751, 77, 0
49.783285, 74, 78
49.818827, 76, 0
50.181502, 72, 91
50.198801, 74, 0
50.564945, 71, 91
50.681859, 72, 0
50.916069, 69, 85
50.959778, 71, 0
51.298712, 67, 83
51.340971, 69, 0
51.672347, 65, 97
51.683736, 67, 0
52.037753, 64, 89
52.109880, 65, 0
52.419994, 62, 87
52.437944, 64, 0
52.811004, 60, 87
52.822894, 62, 0
53.174831, 62, 76
53.219684, 60, 0
53.558666, 64, 79
53.583022, 62, 0
53.916637, 64, 0
53.920158, 65, 89
54.274233, 67, 89
54.316969, 65, 0
54.625685, 69, 75
54.657528, 67, 0
54.982631, 71, 93
55.020753, 69, 0
55.280879, 71, 0
55.311573, 72, 97
55.674875, 74, 91
55.727927, 72, 0
56.021233, 76, 83
56.051580, 74, 0
56.382775, 77, 89
56.383655, 76, 0
56.737397, 79, 85
56.776688, 77, 0
57.081391, 81, 77
57.113744, 79, 0
57.440675, 83, 82
57.490407, 81, 0
57.788917, 84, 89
57.831836, 83, 0
58.130610, 83, 72
58.188665, 84, 0
58.506513, 81, 75
58.565536, 83, 0
58.880472, 79, 82
58.903544, 81, 0
59.215537, 77, 74
59.231636, 79, 0
59.549215, 76, 77
59.625608, 77, 0
59.909759, 74, 87
59.935439, 76, 0
60.251646, 72, 85
60.257511, 74, 0
60.592476, 71, 75
60.639542, 72, 0
60.938563, 69, 63
60.982557, 71, 0
61.294018, 67, 82
61.335373, 69, 0
61.633127, 65, 93
61.652312, 67, 0
61.983587, 64, 73
62.044531, 65, 0
62.331748, 62, 79
62.366367, 64, 0
62.678444, 62, 0
62.690388, 60, 84
63.040899, 62, 79
63.179466, 60, 0
63.384538, 64, 78
63.411373, 62, 0
63.734354, 64, 0
63.750469, 65, 83
64.105715, 67, 83
64.170335, 65, 0
64.430727, 69, 77
64.475523, 67, 0
64.747789, 71, 91
64.782474, 69, 0
65.078316, 71, 0
65.104580, 72, 91
65.462974, 74, 80
65.517407, 72, 0
65.795399, 76, 83
65.825404, 74, 0
66.130547, 76, 0
66.132390, 77, 85
66.472585, 79, 82
66.518282, 77, 0
66.828375, 81, 65
66.870348, 79, 0
67.232967, 83, 77
67.270172, 81, 0
67.899346, 84, 72
67.940299, 83, 0
68.590580, 83, 69
68.636463, 84, 0
69.325514, 81, 80
69.360242, 83, 0
70.026730, 79, 83
70.068239, 81, 0
70.724773, 77, 77
70.756295, 79, 0
71.429755, 76, 71
71.480137, 77, 0
72.143100, 74, 83
72.153209, 76, 0
72.797222, 72, 82
72.827943, 74, 0
73.515755, 71, 67
73.554957, 72, 0
74.257379, 69, 71
74.326921, 71, 0
74.877586, 67, 67
74.882012, 69, 0
75.533714, 65, 74
75.549926, 67, 0
76.116054, 64, 73
76.180009, 65, 0
76.594284, 62, 68
76.606946, 64, 0
77.062989, 60, 79
77.100942, 62, 0
77.504147, 62, 75
77.568861, 60, 0
77.907926, 64, 76
77.936062, 62, 0
78.301001, 64, 0
78.333341, 65, 78
78.720883, 67, 75
78.788136, 65, 0
79.113073, 69, 74
79.144756, 67, 0
79.520943, 71, 82
79.555926, 69, 0
79.878925, 71, 0
79.914931, 72, 71
80.288960, 74, 77
80.354994, 72, 0
80.679827, 76, 74
80.714832, 74, 0
81.054028, 76, 0
81.056030, 77, 83
81.432105, 79, 71
81.499852, 77, 0
81.808020, 81, 72
81.830799, 79, 0
82.196801, 83, 78
82.228780, 81, 0
82.567279, 84, 87
82.627801, 83, 0
82.937782, 83, 75
82.991077, 84, 0
83.341250, 81, 83
83.368647, 83, 0
83.751719, 79, 93
83.764836, 81, 0
84.145274, 77, 87
84.168795, 79, 0
84.506306, 76, 89
84.844942, 77, 0
84.887461, 74, 85
84.920788, 76, 0
85.253608, 72, 85
85.268781, 74, 0
85.664760, 71, 91
85.717677, 72, 0
86.043632, 69, 77
86.091605, 71, 0
86.445086, 67, 87
86.457587, 69, 0
86.824247, 65, 83
86.841832, 67, 0
87.182872, 64, 81
87.369686, 65, 0
87.545953, 62, 79
87.563656, 64, 0
87.919632, 60, 93
87.938668, 62, 0
88.308004, 62, 81
88.389668, 60, 0
88.683716, 64, 78
88.719649, 62, 0
89.068689, 64, 0
89.080533, 65, 82
89.453562, 67, 74
89.503648, 65, 0
89.801541, 69, 77
89.834600, 67, 0
90.191498, 71, 85
90.240382, 69, 0
90.528561, 71, 0
90.549462, 72, 82
90.904642, 74, 83
90.999492, 72, 0
91.279386, 76, 87
91.317505, 74, 0
91.664309, 76, 0
91.683815, 77, 93
92.036693, 79, 82
92.090387, 77, 0
92.404543, 81, 77
92.427454, 79, 0
92.775017, 83, 85
92.825630, 81, 0
93.154740, 84, 87
93.185384, 83, 0
93.521500, 83, 77
93.537356, 84, 0
93.893604, 81, 78
93.944280, 83, 0
94.279068, 79, 85
94.294275, 81, 0
94.628321, 79, 0
94.647708, 77, 75
95.004964, 76, 82
95.097493, 77, 0
95.382280, 74, 74
95.415322, 76, 0
95.756446, 72, 91
95.775281, 74, 0
96.129796, 71, 62
96.179406, 72, 0
96.510823, 69, 74
96.548493, 71, 0
96.871936, 67, 85
96.905537, 69, 0
97.238360, 65, 80
97.294285, 67, 0
97.602335, 64, 83
97.615295, 65, 0
97.975339, 62, 87
97.996357, 64, 0
98.358338, 60, 93
98.388219, 62, 0
98.724860, 62, 79
98.787358, 60, 0
99.080715, 64, 75
99.109396, 62, 0
99.448430, 64, 0
99.473327, 65, 77
99.818160, 67, 77
99.873472, 65, 0
100.174459, 69, 78
100.221282, 67, 0
100.517349, 71, 91
100.570396, 69, 0
100.866147, 71, 0
100.891362, 72, 77
101.241238, 74, 85
101.293237, 72, 0
101.592140, 76, 82
101.632083, 74, 0
101.940148, 76, 0
101.947763, 77, 87
102.299193, 79, 85
102.605032, 77, 0
102.665060, 81, 71
102.680196, 79, 0
102.991974, 83, 78
103.017429, 81, 0
103.359682, 84, 93
103.403064, 83, 0
103.734418, 83, 74
103.788298, 84, 0
104.088385, 81, 80
104.143097, 83, 0
104.468326, 79, 82
104.501072, 81, 0
104.821256, 77, 80
104.840090, 79, 0
105.165057, 76, 85
105.227216, 77, 0
105.536237, 74, 80
105.561577, 76, 0
105.865401, 72, 89
105.880964, 74, 0
106.249144, 71, 91
106.296322, 72, 0
106.599108, 69, 80
106.651063, 71, 0
106.957718, 67, 89
106.983237, 69, 0
107.298079, 65, 87
107.320063, 67, 0
107.658107, 64, 78
107.714999, 65, 0
107.993020, 62, 86
108.018921, 64, 0
108.375120, 60, 87
108.394888, 62, 0
108.731109, 62, 81
108.781030, 60, 0
109.074902, 64, 78
109.122005, 62, 0
109.440913, 64, 0
109.442827, 65, 75
109.802191, 67, 71
109.808176, 69, 62
109.839757, 65, 0
109.863114, 69, 0
110.162020, 69, 75
110.201917, 67, 0
110.520350, 71, 83
110.563784, 69, 0
110.820874, 71, 0
110.862055, 72, 50
110.876952, 71, 43
110.942899, 71, 0
111.215039, 74, 82
111.260702, 72, 0
111.553913, 76, 82
111.598886, 74, 0
111.878803, 76, 0
111.892321, 77, 75
112.248110, 79, 85
112.259658, 77, 0
112.600753, 81, 77
112.629823, 79, 0
112.945830, 83, 78
112.952961, 81, 0
113.288869, 84, 91
113.348772, 83, 0
113.652916, 83, 75
113.699916, 84, 0
114.001788, 81, 82
114.062822, 83, 0
114.357874, 79, 91
114.384663, 81, 0
114.695126, 77, 75
114.711959, 79, 0
115.058448, 76, 82
115.116693, 77, 0
115.417312, 74, 82
115.441869, 76, 0
115.739143, 72, 83
115.751903, 74, 0
116.090128, 71, 82
116.136471, 72, 0
116.432716, 69, 80
116.477619, 71, 0
116.786614, 67, 89
116.808748, 69, 0
117.114697, 65, 67
117.221613, 67, 0
117.460799, 64, 81
117.503613, 65, 0
117.807848, 62, 84
117.821735, 64, 0
118.145221, 60, 89
118.158656, 62, 0
118.488673, 62, 87
118.538776, 60, 0
118.844413, 64, 81
118.878616, 62, 0
119.165556, 64, 0
119.171657, 65, 78
119.525711, 67, 85
119.572512, 65, 0
119.853894, 69, 82
119.909549, 67, 0
120.183432, 71, 89
120.243608, 69, 0
120.467427, 71, 0
120.508866, 72, 85
120.839466, 74, 83
121.020472, 72, 0
121.201567, 76, 83
121.244567, 74, 0
121.546171, 77, 83
121.592662, 76, 0
121.826491, 77, 0
121.850888, 79, 87
122.192844, 81, 91
122.231755, 79, 0
122.529106, 83, 85
122.566451, 81, 0
122.874987, 84, 98
122.933424, 83, 0
123.212127, 83, 93
123.273581, 84, 0
123.563569, 81, 93
123.591710, 83, 0
123.894721, 79, 75
123.903483, 81, 0
124.245021, 77, 93
124.369531, 79, 0
124.572501, 76, 91
124.670150, 77, 0
124.923033, 74, 87
124.987370, 76, 0
125.265481, 72, 89
125.277444, 74, 0
125.612579, 71, 89
125.649528, 72, 0
125.958336, 69, 85
126.014493, 71, 0
126.296959, 67, 91
126.318327, 69, 0
126.625613, 65, 97
126.677579, 67, 0
126.952528, 64, 91
126.999476, 65, 0
127.294279, 62, 91
127.330254, 64, 0
127.647405, 60, 100
127.660427, 62, 0
129.525106, 60, 0
